<?xml version="1.0" encoding="UTF-8"?>
<svg fill="none" height="20" width="20" viewBox="0 0 20 20" xmlns="http://www.w3.org/2000/svg">
<g clip-path="url(#a)">
<path d="m6.6668 6.6667v-2.3333c0-0.93342 0-1.4001 0.18165-1.7566 0.15979-0.31361 0.41476-0.56857 0.72836-0.72836 0.35652-0.18166 0.82323-0.18166 1.7566-0.18166h6.3333c0.9335 0 1.4002 0 1.7567 0.18166 0.3136 0.15979 0.5686 0.41475 0.7284 0.72836 0.1816 0.35652 0.1816 0.82323 0.1816 1.7566v6.3334c0 0.9334 0 1.4001-0.1816 1.7566-0.1598 0.3136-0.4148 0.5686-0.7284 0.7284-0.3565 0.1816-0.8232 0.1816-1.7567 0.1816h-2.3333m-9 5h6.3333c0.9335 0 1.4002 0 1.7567-0.1816 0.3136-0.1598 0.5686-0.4148 0.7284-0.7284 0.1816-0.3565 0.1816-0.8232 0.1816-1.7566v-6.3334c0-0.93342 0-1.4001-0.1816-1.7566-0.1598-0.31361-0.4148-0.56857-0.7284-0.72836-0.3565-0.18166-0.8232-0.18166-1.7567-0.18166h-6.3333c-0.93342 0-1.4001 0-1.7566 0.18166-0.3136 0.15979-0.56857 0.41475-0.72836 0.72836-0.18165 0.35652-0.18165 0.82323-0.18165 1.7566v6.3334c0 0.9334 0 1.4001 0.18165 1.7566 0.15979 0.3136 0.41476 0.5686 0.72836 0.7284 0.35652 0.1816 0.82323 0.1816 1.7566 0.1816z" stroke="currentColor" stroke-linecap="round" stroke-linejoin="round" stroke-width="1.6667"/>
</g>
<defs>
<clipPath id="a">
<rect width="20" height="20" fill="currentColor"/>
</clipPath>
</defs>
</svg>
