<?xml version="1.0" encoding="UTF-8"?>
<svg fill="none" width="20" height="20" viewBox="0 0 20 20" xmlns="http://www.w3.org/2000/svg">
<path d="m7.5 17.5v-6.1667c0-0.4667 0-0.7 0.09083-0.8783 0.07989-0.1568 0.20738-0.2843 0.36418-0.3642 0.17826-0.09081 0.41161-0.09081 0.87832-0.09081h2.3334c0.4667 0 0.7 0 0.8783 0.09081 0.1568 0.0799 0.2843 0.2074 0.3642 0.3642 0.0908 0.1783 0.0908 0.4116 0.0908 0.8783v6.1667m-3.3186-15.197-5.6519 4.3959c-0.37781 0.29385-0.56671 0.44078-0.7028 0.62478-0.12055 0.16299-0.21036 0.3466-0.265 0.54183-0.06169 0.22039-0.06169 0.4597-0.06169 0.93833v6.0291c0 0.9334 0 1.4002 0.18166 1.7567 0.15978 0.3136 0.41475 0.5685 0.72836 0.7283 0.35652 0.1817 0.82323 0.1817 1.7566 0.1817h9.6666c0.9335 0 1.4002 0 1.7567-0.1817 0.3136-0.1598 0.5686-0.4147 0.7283-0.7283 0.1817-0.3565 0.1817-0.8233 0.1817-1.7567v-6.0291c0-0.47863 0-0.71794-0.0617-0.93833-0.0546-0.19523-0.1444-0.37884-0.265-0.54183-0.1361-0.184-0.325-0.33093-0.7028-0.62478l-5.6519-4.3959c-0.2928-0.22771-0.4392-0.34156-0.6008-0.38533-0.1426-0.03862-0.29296-0.03862-0.43559 0-0.16164 0.04377-0.30803 0.15762-0.6008 0.38533z" stroke="currentColor" stroke-linecap="round" stroke-linejoin="round" stroke-width="1.6667"/>
</svg>
