<?xml version="1.0" encoding="UTF-8"?>
<svg viewBox="0 0 179 48" xmlns="http://www.w3.org/2000/svg">
<path d="m25.8 35.787c-3.5-1.3-7.1-1.5-10.4-0.6-2.3 0.6-4.5 1.8-6.5 3.3l-1.4 1.2-0.39999 0.4 0.89999 0.8c0.1 0 0.10001 0.1 0.20001 0.2 0.2 0.2 0.40002 0.3 0.70002 0.5l0.59997 0.4 0.60001-0.5c0.1-0.1 0.3-0.3 0.5-0.4 1.8-1.5 3.8-2.5 5.9-3 2.7-0.7 5.6-0.6 8.5 0.5 2.4 0.9 7.3 2 13.2-0.5l0.2-0.1 0.3-0.3c0-0.1 0.1-0.1 0.2-0.2 0.5-0.6 1-1.2 1.4-1.9l2-3.1-3.2 1.8c-4.7 2.6-9 3.1-13.3 1.5z" fill="#099250"/>
<path d="m12.1 24.988c2.7-0.7 5.6-0.6 8.5 0.5 3.2 1.2 11.4 2.9 20.6-5.4l2-2-0.2-0.5c-0.1-0.4-0.3-0.9-0.5-1.4l-0.5-1.4-1 1c-0.1 0.2-0.3 0.3-0.5 0.5-4.4 4.5-11.2 9.1-19 6.3-3.5-1.3-7.1-1.5-10.4-0.6-3.2 0.9-6 2.6-8.6 5v-0.1l-1.5 1.6c0 0.1-0.099982 0.1-0.19998 0.2l-0.30002 0.3 0.10001 0.4c0.1 0.5 0.29999 1 0.39999 1.5l0.60001 1.6 1-1.3c0.1-0.2 0.29999-0.3 0.39999-0.5 2.1-1.9 5-4.6 9.1-5.7z" fill="#099250"/>
<path d="m2.4 23.187c2.3-2.4 4.9-3.9 7.7-4.7 2.7-0.7 5.6-0.6 8.5 0.5 9 3.3 16.8-2.1 20.2-5l1.3-1.3 0.5-0.4-0.4-0.6c-0.3-0.3-0.5-0.7-0.8-1.1l-0.6-0.79999-1.1 1.1c-4.2 4-10.7 8.1-18.1 5.3-3.5-1.3-7.1-1.5-10.4-0.6-2.1 0.6-4.1 1.6-6.1 2.9l-2.1 1.7-0.5 0.5-0.19998 0.2v0.3c-0.1 0.7-0.10001 1.4-0.20001 2l-0.10001 2.5 1.7-1.8c0.2-0.2 0.40001-0.5 0.70001-0.7z" fill="#099250"/>
<path d="m28.7 42.587-0.2 0.6 0.2-0.6c-0.3-0.1-0.5-0.2-0.8-0.3-3.5-1.3-7.1-1.5-10.4-0.6-0.7 0.2-1.4 0.4-2.1 0.7l-2.4 1.1-0.6 0.3 2 0.7 2.1 0.7 0.3-0.1c0.3-0.1 0.6-0.3 0.9-0.3 0.2 0 0.4-0.1 0.6-0.2 2.4-0.6 5-0.6 7.8 0.3 0.3 0.1 0.5 0.2 0.8 0.3l0.5 0.2 0.3-0.1c0.7-0.2 1.5-0.4 2.1-0.7l2.8-1-2.9-0.7c-0.3-0.1-0.7-0.2-1-0.3z" fill="#099250"/>
<path d="m44 21.888-2.1 2.1c-4.1 3.9-10.7 8.0999-18.1 5.2999-3.5-1.3-7.1-1.4999-10.4-0.5999-3.1 0.9-5.9 2.5-8.4 4.9l-1.3 1.4-0.4 0.5 0.4 0.6c0.3 0.4 0.50001 0.7 0.70001 1.1l0.59998 0.9 0.70001-0.9c0.1-0.1 0.29999-0.3001 0.39999-0.4001 2.4-2.6 5-4.2 8-5 2.7-0.7 5.6-0.6 8.5 0.5 2.5 0.9 5.1 1.2001 7.7 0.9001 4.6-0.5 9.2-3.1 12.6-6 0.2-0.2 0.4-0.3 0.6-0.5l0.3-0.3v-0.3c0-0.6 0.1-1.3 0.1-1.9l0.1-2.3z" fill="#099250"/>
<path d="m6.0002 12.688-0.29998-0.6001 0.29998 0.6001c0.6-0.3 1.3-0.5001 1.9-0.7001 2.7-0.7 5.6-0.6 8.5 0.5 1.9 0.7 3.8 1 5.9 1 4.2 0 8.4-1.5 12.3-4.4l1.5-1.2 0.5-0.39999-0.9-0.70001c-0.3-0.3-0.7-0.59999-1.1-0.79999l-0.6-0.39999-0.5 0.39999c-0.2 0.1-0.3 0.29999-0.5 0.39999-5.3 4-10.6 5.1-15.6 3.2-3.6-1.3-7.2-1.6-10.8-0.5-0.3 0.1-0.6 0.19998-1 0.29998l-0.19998 0.10001-0.30002 0.29999c0 0.1-0.09998 0.10001-0.19998 0.20001-0.4 0.59996-0.90002 1.1001-1.3 1.7001l-1.9 2.8999 3.1-1.6c0.5 0 0.89998-0.1999 1.2-0.2999z" fill="#099250"/>
<path d="m14.2 5.8875 0.3 0.10001c1.3 0.5 3.3 1 5.8 1 2.6 0 5.1-0.60001 7.6-1.6l3.1-1.5-2.1-0.69998c-0.6-0.2-1.2-0.4-1.9-0.5h-0.3l-0.3 0.09998c-0.3 0.1-0.6 0.30002-0.9 0.40002-3 1.1-6 1.3-8.9 0.5-0.3-0.1-0.6-0.20002-0.9-0.30002l-0.3-0.1-0.3 0.1c-0.6 0.2-1.2 0.40001-1.8 0.70001l-2.3 1 2.4 0.69999c0.2-0.1 0.5 0 0.8 0.1z" fill="#099250"/>
<path d="m61.28 33.909h-4.6137l7.0298-20.364h5.5483l7.0199 20.364h-4.6136l-5.1009-15.71h-0.1591l-5.1107 15.71zm-0.2884-8.0043h10.898v3.3608h-10.898v-3.3608z" fill="#101828"/>
<path d="m82.871 13.546v20.364h-4.2358v-20.364h4.2358z" fill="#101828"/>
<path d="m94.388 18.636v3.1818h-9.1975v-3.1818h9.1975zm-7.1094-3.6591h4.2358v14.239c0 0.3911 0.0596 0.696 0.179 0.9148 0.1193 0.2121 0.285 0.3613 0.4971 0.4474 0.2188 0.0862 0.4707 0.1293 0.7557 0.1293 0.1989 0 0.3977-0.0166 0.5966-0.0497 0.1989-0.0398 0.3513-0.0696 0.4574-0.0895l0.6662 3.152c-0.2121 0.0663-0.5104 0.1425-0.8949 0.2287-0.3845 0.0928-0.8518 0.1491-1.402 0.169-1.0208 0.0398-1.9157-0.0961-2.6847-0.4077-0.7623-0.3115-1.3556-0.7954-1.7798-1.4517-0.4242-0.6562-0.633-1.4848-0.6264-2.4858v-14.795z" fill="#101828"/>
<path d="m102.73 32.806v-14.08h3.559v14.08h-3.559zm-5.2601-5.2599v-3.5597h14.079v3.5597h-14.079z" fill="#101828"/>
<path d="m126.84 19.402c-0.08-0.8021-0.421-1.4252-1.024-1.8693-0.603-0.4442-1.422-0.6662-2.456-0.6662-0.703 0-1.296 0.0994-1.78 0.2983-0.484 0.1922-0.855 0.4607-1.114 0.8054-0.251 0.3447-0.377 0.7358-0.377 1.1733-0.014 0.3646 0.063 0.6827 0.228 0.9545 0.173 0.2718 0.408 0.5071 0.706 0.706 0.299 0.1922 0.643 0.3612 1.034 0.5071 0.391 0.1392 0.809 0.2585 1.253 0.3579l1.83 0.4375c0.888 0.1989 1.703 0.4641 2.446 0.7955 0.742 0.3314 1.385 0.7391 1.929 1.223 0.543 0.4839 0.964 1.054 1.263 1.7102 0.304 0.6563 0.46 1.4086 0.467 2.2571-7e-3 1.2462-0.325 2.3267-0.955 3.2415-0.623 0.9082-1.524 1.6141-2.704 2.1179-1.174 0.4972-2.589 0.7457-4.246 0.7457-1.644 0-3.076-0.2518-4.295-0.7556-1.214-0.5038-2.161-1.2496-2.844-2.2373-0.676-0.9943-1.031-2.2239-1.064-3.6889h4.166c0.046 0.6828 0.242 1.2529 0.587 1.7103 0.351 0.4507 0.818 0.7921 1.402 1.0241 0.59 0.2254 1.256 0.3381 1.998 0.3381 0.729 0 1.363-0.1061 1.899-0.3182 0.544-0.2121 0.965-0.5071 1.263-0.885 0.299-0.3778 0.448-0.812 0.448-1.3025 0-0.4574-0.136-0.8419-0.408-1.1534-0.265-0.3116-0.656-0.5767-1.173-0.7955-0.511-0.2187-1.137-0.4176-1.88-0.5966l-2.217-0.5568c-1.717-0.4176-3.072-1.0705-4.067-1.9588-0.994-0.8883-1.488-2.0847-1.481-3.5895-7e-3 -1.2329 0.321-2.3101 0.984-3.2315 0.67-0.9214 1.588-1.6406 2.754-2.1577 1.167-0.517 2.493-0.7756 3.978-0.7756 1.511 0 2.83 0.2586 3.957 0.7756 1.134 0.5171 2.015 1.2363 2.645 2.1577s0.955 1.9886 0.974 3.2017h-4.126z" fill="#101828"/>
<path d="m138.3 25.08v8.8296h-4.236v-20.364h4.117v7.7855h0.179c0.344-0.9015 0.901-1.6075 1.67-2.1179 0.769-0.5171 1.734-0.7756 2.894-0.7756 1.06 0 1.985 0.232 2.774 0.696 0.795 0.4574 1.412 1.117 1.849 1.9787 0.444 0.8551 0.663 1.8793 0.656 3.0725v9.7244h-4.235v-8.9688c6e-3 -0.9412-0.232-1.6737-0.716-2.1974-0.478-0.5237-1.147-0.7855-2.009-0.7855-0.576 0-1.087 0.1226-1.531 0.3679-0.438 0.2453-0.782 0.6032-1.034 1.0738-0.245 0.4641-0.371 1.0242-0.378 1.6804z" fill="#101828"/>
<path d="m151.53 33.909v-15.273h4.236v15.273h-4.236zm2.128-17.242c-0.63 0-1.17-0.2088-1.621-0.6264-0.444-0.4242-0.666-0.9314-0.666-1.5213 0-0.5833 0.222-1.0838 0.666-1.5014 0.451-0.4243 0.991-0.6364 1.621-0.6364 0.629 0 1.166 0.2121 1.611 0.6364 0.45 0.4176 0.676 0.9181 0.676 1.5014 0 0.5899-0.226 1.0971-0.676 1.5213-0.445 0.4176-0.982 0.6264-1.611 0.6264z" fill="#101828"/>
<path d="m168.89 18.636v3.1818h-10.94v-3.1818h10.94zm-8.783 15.273v-16.376c0-1.107 0.216-2.0251 0.647-2.7543 0.437-0.7292 1.034-1.276 1.79-1.6406 0.755-0.3646 1.614-0.5469 2.575-0.5469 0.649 0 1.243 0.0497 1.78 0.1492 0.543 0.0994 0.948 0.1889 1.213 0.2684l-0.756 3.1818c-0.166-0.053-0.371-0.1027-0.616-0.1491-0.239-0.0464-0.484-0.0696-0.736-0.0696-0.623 0-1.058 0.1458-1.303 0.4375-0.245 0.285-0.368 0.6861-0.368 1.2031v16.297h-4.226z" fill="#101828"/>
<path d="m178.09 18.636v3.1818h-9.197v-3.1818h9.197zm-7.109-3.6591h4.236v14.239c0 0.3911 0.059 0.696 0.179 0.9148 0.119 0.2121 0.285 0.3613 0.497 0.4474 0.218 0.0862 0.47 0.1293 0.755 0.1293 0.199 0 0.398-0.0166 0.597-0.0497 0.199-0.0398 0.351-0.0696 0.457-0.0895l0.667 3.152c-0.213 0.0663-0.511 0.1425-0.895 0.2287-0.385 0.0928-0.852 0.1491-1.402 0.169-1.021 0.0398-1.916-0.0961-2.685-0.4077-0.762-0.3115-1.356-0.7954-1.78-1.4517-0.424-0.6562-0.633-1.4848-0.626-2.4858v-14.795z" fill="#101828"/>
</svg>
