<?xml version="1.0" encoding="UTF-8"?>
<svg fill="none" height="20" width="20" viewBox="0 0 20 20" xmlns="http://www.w3.org/2000/svg">
<path d="m13.333 5v-0.66667c0-0.93342 0-1.4001-0.1816-1.7566-0.1598-0.31361-0.4148-0.56857-0.7284-0.72836-0.3565-0.18166-0.8232-0.18166-1.7566-0.18166h-1.3334c-0.93342 0-1.4001 0-1.7566 0.18166-0.3136 0.15979-0.56857 0.41475-0.72836 0.72836-0.18165 0.35652-0.18165 0.82323-0.18165 1.7566v0.66667m1.6667 4.5833v4.1667m3.3334-4.1667v4.1667m-9.1667-8.75h15m-1.6667 0v9.3333c0 1.4002 0 2.1002-0.2725 2.635-0.2396 0.4704-0.6221 0.8529-1.0925 1.0926-0.5348 0.2724-1.2348 0.2724-2.635 0.2724h-3.6666c-1.4001 0-2.1002 0-2.635-0.2724-0.4704-0.2397-0.85286-0.6222-1.0925-1.0926-0.27248-0.5348-0.27248-1.2348-0.27248-2.635v-9.3333" stroke="currentColor" stroke-linecap="round" stroke-linejoin="round" stroke-width="1.6667"/>
</svg>
